<svg xmlns="http://www.w3.org/2000/svg" width="1200" height="720" viewBox="0 0 1200 720" fill="none">
  <defs>
    <linearGradient id="g" x1="140" y1="120" x2="1080" y2="600" gradientUnits="userSpaceOnUse">
      <stop stop-color="#FF2E93"/>
      <stop offset="0.55" stop-color="#A642FF"/>
      <stop offset="1" stop-color="#2DE2E6"/>
    </linearGradient>
    <filter id="blur" x="-10%" y="-10%" width="120%" height="120%">
      <feGaussianBlur stdDeviation="18"/>
    </filter>
  </defs>

  <rect width="1200" height="720" rx="48" fill="#070712"/>
  <circle cx="220" cy="190" r="170" fill="rgba(255,46,147,0.22)" filter="url(#blur)"/>
  <circle cx="980" cy="160" r="210" fill="rgba(45,226,230,0.18)" filter="url(#blur)"/>
  <circle cx="670" cy="560" r="240" fill="rgba(166,66,255,0.18)" filter="url(#blur)"/>

  <rect x="120" y="150" width="960" height="420" rx="38" fill="rgba(11,11,22,0.55)" stroke="rgba(255,255,255,0.10)"/>
  <rect x="160" y="190" width="880" height="120" rx="28" fill="rgba(11,11,22,0.55)" stroke="rgba(45,226,230,0.22)"/>
  <rect x="160" y="330" width="880" height="200" rx="28" fill="rgba(11,11,22,0.45)" stroke="rgba(255,46,147,0.20)"/>

  <rect x="196" y="216" width="88" height="88" rx="24" fill="rgba(7,7,18,1)" stroke="rgba(255,255,255,0.10)"/>
  <path d="M216 282c12-28 28-42 48-42 13 0 25 6 35 18 10-12 22-18 35-18 20 0 36 14 48 42"
        stroke="url(#g)" stroke-width="6" stroke-linecap="round" stroke-linejoin="round"/>

  <text x="308" y="252" font-family="Inter, system-ui, Segoe UI, Roboto, Arial" font-size="34" font-weight="900" fill="url(#g)">xNaMai Sorteios</text>
  <text x="308" y="290" font-family="Inter, system-ui, Segoe UI, Roboto, Arial" font-size="18" font-weight="700" fill="rgba(255,255,255,0.78)">Cart„o Presente Digital</text>

  <text x="196" y="395" font-family="Inter, system-ui, Segoe UI, Roboto, Arial" font-size="22" font-weight="800" fill="rgba(255,255,255,0.90)">
    Seu crÈdito fica disponÌvel para usar no site.
  </text>
  <text x="196" y="430" font-family="Inter, system-ui, Segoe UI, Roboto, Arial" font-size="18" font-weight="600" fill="rgba(255,255,255,0.70)">
    Visual ilustrativo (sem dados sensÌveis).
  </text>

  <rect x="196" y="470" width="280" height="46" rx="999" fill="rgba(255,46,147,0.16)" stroke="rgba(255,46,147,0.35)"/>
  <text x="220" y="500" font-family="Inter, system-ui, Segoe UI, Roboto, Arial" font-size="16" font-weight="800" fill="rgba(255,255,255,0.88)">
    CR…DITO " SORTEIO " PREMIUM
  </text>
</svg>

